<svg width="85" height="17" viewBox="0 0 85 17" fill="none" xmlns="http://www.w3.org/2000/svg">
<path d="M9.26 2.8C8.36667 2.22667 7.50667 1.94 6.68 1.94C5.85333 1.94 5.18667 2.16667 4.68 2.62C4.17333 3.07333 3.92 3.64667 3.92 4.34C3.92 5.02 4.19333 5.61333 4.74 6.12C5.28667 6.62667 6.16667 7.17333 7.38 7.76C9.32667 8.70667 10.56 9.72 11.08 10.8C11.32 11.3067 11.44 11.8467 11.44 12.42C11.44 13.66 10.9133 14.6333 9.86 15.34C8.82 16.0467 7.59333 16.4 6.18 16.4C5.42 16.4 4.62667 16.3267 3.8 16.18C2.97333 16.0333 2.38 15.8867 2.02 15.74C1.88667 14.7 1.66 13.5133 1.34 12.18C1.58 12.06 1.76 12 1.88 12C2.01333 12 2.11333 12.0067 2.18 12.02C2.55333 12.9533 2.9 13.66 3.22 14.14C3.5 14.4333 3.74667 14.6733 3.96 14.86C4.17333 15.0333 4.52 15.2133 5 15.4C5.49333 15.5867 6.08667 15.68 6.78 15.68C7.47333 15.68 8.1 15.44 8.66 14.96C9.22 14.48 9.5 13.8667 9.5 13.12C9.5 12.52 9.39333 12.0867 9.18 11.82C8.96667 11.5533 8.80667 11.3533 8.7 11.22C8.60667 11.0867 8.42 10.9333 8.14 10.76C7.86 10.5733 7.66667 10.4467 7.56 10.38C7.45333 10.3133 7.22 10.1867 6.86 10C6.51333 9.81333 6.2 9.64667 5.92 9.5C5.65333 9.34 5.42667 9.20667 5.24 9.1C5.05333 8.99333 4.76667 8.82667 4.38 8.6C3.99333 8.36 3.72 8.17333 3.56 8.04C3.4 7.89333 3.19333 7.7 2.94 7.46C2.68667 7.22 2.50667 7 2.4 6.8C2.13333 6.22667 2 5.68667 2 5.18C2 3.95333 2.51333 3 3.54 2.32C4.56667 1.62667 5.80667 1.28 7.26 1.28C7.86 1.28 8.52667 1.36 9.26 1.52C9.99333 1.68 10.56 1.84667 10.96 2.02C10.84 2.48667 10.7267 3.46 10.62 4.94C10.4867 5.00667 10.3467 5.04 10.2 5.04C10.0533 5.04 9.92667 5.01333 9.82 4.96C9.80667 4.8 9.72667 4.44 9.58 3.88C9.43333 3.30667 9.32667 2.94667 9.26 2.8ZM37.7534 16.06L35.4134 16C34.4001 16 33.5134 16.0533 32.7534 16.16C32.6734 16.0533 32.6334 15.94 32.6334 15.82L32.6734 15.66C33.1934 15.54 33.5534 15.4067 33.7534 15.26C33.9668 15.1 34.0734 14.9267 34.0734 14.74C34.0734 14.5533 33.9801 14.18 33.7934 13.62L32.6134 10.62C31.8934 10.58 31.0334 10.56 30.0334 10.56L27.1734 10.62L26.6734 11.9C26.0068 13.5533 25.6734 14.7267 25.6734 15.42C25.9801 15.4333 26.4468 15.44 27.0734 15.44C27.1001 15.5333 27.1134 15.64 27.1134 15.76C27.1134 15.88 27.1001 15.98 27.0734 16.06L24.9534 16C24.1134 16 23.3801 16.0533 22.7534 16.16C22.6734 16.0667 22.6334 15.9533 22.6334 15.82L22.6734 15.66C23.3534 15.4733 23.8468 15.18 24.1534 14.78C24.4734 14.38 24.9468 13.4733 25.5734 12.06L30.5134 0.860001H30.8334L35.4334 12.62C35.5134 12.8733 35.7201 13.3667 36.0534 14.1C36.4001 14.82 36.6201 15.2467 36.7134 15.38C37.0868 15.42 37.4334 15.44 37.7534 15.44C37.7934 15.5333 37.8134 15.64 37.8134 15.76C37.8134 15.88 37.7934 15.98 37.7534 16.06ZM27.4734 9.84L30.0334 9.92C30.9534 9.92 31.7268 9.9 32.3534 9.86L30.0334 3.74L27.4734 9.84ZM48.6948 1.54L51.7348 1.6H54.1148C55.6215 1.6 56.8082 1.92667 57.6748 2.58C58.5415 3.22 58.9748 4.22 58.9748 5.58C58.9748 6.60667 58.7015 7.45333 58.1548 8.12C57.6215 8.77333 56.8882 9.23333 55.9548 9.5C56.4215 10.3133 57.0015 11.24 57.6948 12.28C58.4015 13.32 58.9682 14.0867 59.3948 14.58C59.8348 15.06 60.2015 15.3267 60.4948 15.38C60.7882 15.42 61.2415 15.44 61.8548 15.44C61.8815 15.5467 61.8948 15.6533 61.8948 15.76C61.8948 15.8533 61.8815 15.9533 61.8548 16.06C60.8815 16.1133 60.1215 16.18 59.5748 16.26C59.0415 16.3533 58.7215 16.4 58.6148 16.4C58.5215 16.4 58.3215 16.2333 58.0148 15.9C57.7215 15.5533 57.3748 15.08 56.9748 14.48C56.5748 13.8667 56.2082 13.3 55.8748 12.78C55.5548 12.26 55.1882 11.6667 54.7748 11C54.3748 10.32 54.1282 9.90667 54.0348 9.76C53.1815 9.76 52.5215 9.73333 52.0548 9.68V12.66C52.0548 13.46 52.1015 14.34 52.1948 15.3C52.6082 15.3933 53.1948 15.44 53.9548 15.44C53.9948 15.5467 54.0148 15.6667 54.0148 15.8C54.0148 15.92 53.9948 16.0067 53.9548 16.06L51.2948 16C50.2815 16 49.3548 16.0533 48.5148 16.16C48.4482 16.08 48.4148 15.9667 48.4148 15.82L48.4348 15.66C49.1282 15.5 49.5815 15.2533 49.7948 14.92C49.9682 14.6533 50.0815 14.32 50.1348 13.92C50.2948 12.7067 50.3748 11.0667 50.3748 9C50.3748 4.58667 50.2548 2.34 50.0148 2.26C49.7615 2.19333 49.3215 2.16 48.6948 2.16C48.6415 2.06667 48.6148 1.98 48.6148 1.9C48.6148 1.82 48.6415 1.7 48.6948 1.54ZM57.2348 5.8C57.2348 4.81333 56.9548 3.97333 56.3948 3.28C55.8482 2.58667 55.1148 2.24 54.1948 2.24C53.2748 2.24 52.6348 2.26667 52.2748 2.32C52.1282 2.90667 52.0548 5.12 52.0548 8.96C52.5348 9 53.2015 9.02 54.0548 9.02C54.9082 9.02 55.6482 8.72667 56.2748 8.14C56.9148 7.55333 57.2348 6.77333 57.2348 5.8ZM81.0761 16.06L77.7961 16C76.3561 16 75.1628 16.0533 74.2161 16.16C74.1494 16.08 74.1161 15.9667 74.1161 15.82L74.1361 15.66C75.0561 15.5133 75.6628 15.3267 75.9561 15.1C76.2494 14.86 76.4428 14.4733 76.5361 13.94C76.7228 12.9533 76.8161 11.3 76.8161 8.98C76.8161 6.66 76.7894 5.04 76.7361 4.12C76.6828 3.2 76.6161 2.62667 76.5361 2.4C76.2028 2.33333 75.7961 2.3 75.3161 2.3C74.1961 2.3 73.3228 2.44667 72.6961 2.74L71.8161 4.94C71.5094 4.94 71.2828 4.88667 71.1361 4.78L71.4561 1.68C71.4561 1.53333 71.5694 1.46 71.7961 1.46L75.3161 1.6H80.2161L84.0561 1.46C84.2961 1.46 84.4161 1.53333 84.4161 1.68C84.2028 2.85333 84.0961 3.92667 84.0961 4.9C83.9894 4.95333 83.8561 4.98 83.6961 4.98C83.5361 4.98 83.4094 4.95333 83.3161 4.9C83.0761 3.58 82.9428 2.86 82.9161 2.74C82.2494 2.44667 81.3361 2.3 80.1761 2.3C79.6561 2.3 79.2361 2.33333 78.9161 2.4C78.8761 2.52 78.8228 3.07333 78.7561 4.06C78.7028 5.04667 78.6761 6.31333 78.6761 7.86V11.44C78.6761 12.92 78.7828 14.2067 78.9961 15.3C79.6094 15.3933 80.3028 15.44 81.0761 15.44C81.1161 15.5467 81.1361 15.6667 81.1361 15.8C81.1361 15.92 81.1161 16.0067 81.0761 16.06Z" fill="#4D4D4D"/>
<path d="M0 9H84.6561V10H0V9Z" fill="#4D4D4D"/>
</svg>
